<svg width="16" height="21" viewBox="0 0 16 21" fill="none" xmlns="http://www.w3.org/2000/svg">
<path d="M1.14286 19.0313C1.14286 19.5534 1.32347 20.0542 1.64496 20.4234C1.96645 20.7926 2.40249 21 2.85714 21H13.1429C13.5975 21 14.0336 20.7926 14.355 20.4234C14.6765 20.0542 14.8571 19.5534 14.8571 19.0313V5.25H1.14286V19.0313ZM10.8571 8.53125C10.8571 8.35721 10.9173 8.19029 11.0245 8.06722C11.1317 7.94414 11.277 7.875 11.4286 7.875C11.5801 7.875 11.7255 7.94414 11.8326 8.06722C11.9398 8.19029 12 8.35721 12 8.53125V17.7188C12 17.8928 11.9398 18.0597 11.8326 18.1828C11.7255 18.3059 11.5801 18.375 11.4286 18.375C11.277 18.375 11.1317 18.3059 11.0245 18.1828C10.9173 18.0597 10.8571 17.8928 10.8571 17.7188V8.53125ZM7.42857 8.53125C7.42857 8.35721 7.48878 8.19029 7.59594 8.06722C7.7031 7.94414 7.84845 7.875 8 7.875C8.15155 7.875 8.2969 7.94414 8.40406 8.06722C8.51122 8.19029 8.57143 8.35721 8.57143 8.53125V17.7188C8.57143 17.8928 8.51122 18.0597 8.40406 18.1828C8.2969 18.3059 8.15155 18.375 8 18.375C7.84845 18.375 7.7031 18.3059 7.59594 18.1828C7.48878 18.0597 7.42857 17.8928 7.42857 17.7188V8.53125ZM4 8.53125C4 8.35721 4.0602 8.19029 4.16737 8.06722C4.27453 7.94414 4.41988 7.875 4.57143 7.875C4.72298 7.875 4.86833 7.94414 4.97549 8.06722C5.08265 8.19029 5.14286 8.35721 5.14286 8.53125V17.7188C5.14286 17.8928 5.08265 18.0597 4.97549 18.1828C4.86833 18.3059 4.72298 18.375 4.57143 18.375C4.41988 18.375 4.27453 18.3059 4.16737 18.1828C4.0602 18.0597 4 17.8928 4 17.7188V8.53125ZM15.4286 1.31251H11.1429L10.8071 0.545515C10.736 0.38154 10.6265 0.243608 10.4908 0.147236C10.3552 0.0508642 10.1988 -0.000124194 10.0393 7.19115e-06H5.95714C5.79799 -0.000695428 5.64189 0.0501028 5.50672 0.146582C5.37154 0.243061 5.26277 0.381319 5.19286 0.545515L4.85714 1.31251H0.571429C0.419876 1.31251 0.274531 1.38165 0.167368 1.50472C0.0602039 1.62779 0 1.79471 0 1.96876L0 3.28126C0 3.4553 0.0602039 3.62222 0.167368 3.74529C0.274531 3.86837 0.419876 3.93751 0.571429 3.93751H15.4286C15.5801 3.93751 15.7255 3.86837 15.8326 3.74529C15.9398 3.62222 16 3.4553 16 3.28126V1.96876C16 1.79471 15.9398 1.62779 15.8326 1.50472C15.7255 1.38165 15.5801 1.31251 15.4286 1.31251Z" fill="#4D44B5"/>
</svg>
