<svg width="16" height="21" viewBox="0 0 16 21" fill="none" xmlns="http://www.w3.org/2000/svg">
<path d="M1.13608 19.0313C1.13608 19.5534 1.31563 20.0542 1.63521 20.4234C1.9548 20.7926 2.38825 21 2.84021 21H13.065C13.5169 21 13.9504 20.7926 14.27 20.4234C14.5896 20.0542 14.7691 19.5534 14.7691 19.0313V5.25H1.13608V19.0313ZM10.7928 8.53125C10.7928 8.35721 10.8527 8.19029 10.9592 8.06722C11.0657 7.94414 11.2102 7.875 11.3608 7.875C11.5115 7.875 11.656 7.94414 11.7625 8.06722C11.869 8.19029 11.9289 8.35721 11.9289 8.53125V17.7188C11.9289 17.8928 11.869 18.0597 11.7625 18.1828C11.656 18.3059 11.5115 18.375 11.3608 18.375C11.2102 18.375 11.0657 18.3059 10.9592 18.1828C10.8527 18.0597 10.7928 17.8928 10.7928 17.7188V8.53125ZM7.38455 8.53125C7.38455 8.35721 7.4444 8.19029 7.55093 8.06722C7.65745 7.94414 7.80194 7.875 7.95259 7.875C8.10325 7.875 8.24773 7.94414 8.35426 8.06722C8.46079 8.19029 8.52064 8.35721 8.52064 8.53125V17.7188C8.52064 17.8928 8.46079 18.0597 8.35426 18.1828C8.24773 18.3059 8.10325 18.375 7.95259 18.375C7.80194 18.375 7.65745 18.3059 7.55093 18.1828C7.4444 18.0597 7.38455 17.8928 7.38455 17.7188V8.53125ZM3.9763 8.53125C3.9763 8.35721 4.03614 8.19029 4.14267 8.06722C4.2492 7.94414 4.39368 7.875 4.54434 7.875C4.69499 7.875 4.83948 7.94414 4.94601 8.06722C5.05253 8.19029 5.11238 8.35721 5.11238 8.53125V17.7188C5.11238 17.8928 5.05253 18.0597 4.94601 18.1828C4.83948 18.3059 4.69499 18.375 4.54434 18.375C4.39368 18.375 4.2492 18.3059 4.14267 18.1828C4.03614 18.0597 3.9763 17.8928 3.9763 17.7188V8.53125ZM15.3371 1.31251H11.0768L10.7431 0.545515C10.6724 0.38154 10.5635 0.243608 10.4287 0.147236C10.2938 0.0508642 10.1384 -0.000124194 9.97979 7.19115e-06H5.92184C5.76363 -0.000695428 5.60846 0.0501028 5.47408 0.146582C5.33971 0.243061 5.23158 0.381319 5.16208 0.545515L4.82836 1.31251H0.568042C0.417388 1.31251 0.272904 1.38165 0.166376 1.50472C0.0598472 1.62779 0 1.79471 0 1.96876L0 3.28126C0 3.4553 0.0598472 3.62222 0.166376 3.74529C0.272904 3.86837 0.417388 3.93751 0.568042 3.93751H15.3371C15.4878 3.93751 15.6323 3.86837 15.7388 3.74529C15.8453 3.62222 15.9052 3.4553 15.9052 3.28126V1.96876C15.9052 1.79471 15.8453 1.62779 15.7388 1.50472C15.6323 1.38165 15.4878 1.31251 15.3371 1.31251Z" fill="#F5A918"/>
</svg>
