<svg width="90" height="90" viewBox="0 0 90 90" fill="none" xmlns="http://www.w3.org/2000/svg">
<circle cx="45" cy="45" r="45" fill="#FB7D5B"/>
<path d="M52.9519 53.1696L45.4991 61.5513L38.0464 53.1696C32.4607 53.442 28 58.5817 28 64.9251V65.7685C28 68.0968 29.6796 69.9857 31.7498 69.9857H59.2485C61.3187 69.9857 62.9983 68.0968 62.9983 65.7685V64.9251C62.9983 58.5817 58.5376 53.442 52.9519 53.1696ZM29.0624 32.0133L29.5624 32.1451V37.276C29.0156 37.645 28.625 38.2864 28.625 39.0595C28.625 39.7976 28.9843 40.4126 29.4921 40.7904L28.2734 46.2639C28.1406 46.8702 28.4375 47.494 28.8671 47.494H32.1326C32.5623 47.494 32.8591 46.8702 32.7263 46.2639L31.5076 40.7904C32.0154 40.4126 32.3748 39.7976 32.3748 39.0595C32.3748 38.2864 31.9842 37.645 31.4373 37.276V32.6547L36.5933 34.0516C35.9215 35.5628 35.4996 37.2497 35.4996 39.0595C35.4996 45.2711 39.976 50.3054 45.4991 50.3054C51.0223 50.3054 55.4987 45.2711 55.4987 39.0595C55.4987 37.2497 55.0846 35.5628 54.405 34.0516L61.928 32.0133C63.3498 31.6267 63.3498 29.6323 61.928 29.2458L47.0538 25.2043C46.0382 24.9319 44.9679 24.9319 43.9523 25.2043L29.0624 29.237C27.6485 29.6236 27.6485 31.6267 29.0624 32.0133Z" fill="white"/>
</svg>
