<svg width="90" height="90" viewBox="0 0 90 90" fill="none" xmlns="http://www.w3.org/2000/svg">
<circle cx="45" cy="45" r="45" fill="#4D44B5"/>
<path d="M52.9519 51.1696L45.4991 59.5513L38.0464 51.1696C32.4607 51.442 28 56.5817 28 62.9251V63.7685C28 66.0968 29.6796 67.9857 31.7498 67.9857H59.2485C61.3187 67.9857 62.9983 66.0968 62.9983 63.7685V62.9251C62.9983 56.5817 58.5376 51.442 52.9519 51.1696ZM29.0624 30.0133L29.5624 30.1451V35.276C29.0156 35.645 28.625 36.2864 28.625 37.0595C28.625 37.7976 28.9843 38.4126 29.4921 38.7904L28.2734 44.2639C28.1406 44.8702 28.4375 45.494 28.8671 45.494H32.1326C32.5623 45.494 32.8591 44.8702 32.7263 44.2639L31.5076 38.7904C32.0154 38.4126 32.3748 37.7976 32.3748 37.0595C32.3748 36.2864 31.9842 35.645 31.4373 35.276V30.6547L36.5933 32.0516C35.9215 33.5628 35.4996 35.2497 35.4996 37.0595C35.4996 43.2711 39.976 48.3054 45.4991 48.3054C51.0223 48.3054 55.4987 43.2711 55.4987 37.0595C55.4987 35.2497 55.0846 33.5628 54.405 32.0516L61.928 30.0133C63.3498 29.6267 63.3498 27.6323 61.928 27.2458L47.0538 23.2043C46.0382 22.9319 44.9679 22.9319 43.9523 23.2043L29.0624 27.237C27.6485 27.6236 27.6485 29.6267 29.0624 30.0133Z" fill="white"/>
</svg>
