<svg width="90" height="90" viewBox="0 0 90 90" fill="none" xmlns="http://www.w3.org/2000/svg">
<circle cx="45" cy="45" r="45" fill="#FB7D5B"/>
<path d="M52.9519 55.1696L45.4991 63.5513L38.0464 55.1696C32.4607 55.442 28 60.5817 28 66.9251V67.7685C28 70.0968 29.6796 71.9857 31.7498 71.9857H59.2485C61.3187 71.9857 62.9983 70.0968 62.9983 67.7685V66.9251C62.9983 60.5817 58.5376 55.442 52.9519 55.1696ZM29.0624 34.0133L29.5624 34.1451V39.276C29.0156 39.645 28.625 40.2864 28.625 41.0595C28.625 41.7976 28.9843 42.4126 29.4921 42.7904L28.2734 48.2639C28.1406 48.8702 28.4375 49.494 28.8671 49.494H32.1326C32.5623 49.494 32.8591 48.8702 32.7263 48.2639L31.5076 42.7904C32.0154 42.4126 32.3748 41.7976 32.3748 41.0595C32.3748 40.2864 31.9842 39.645 31.4373 39.276V34.6547L36.5933 36.0516C35.9215 37.5628 35.4996 39.2497 35.4996 41.0595C35.4996 47.2711 39.976 52.3054 45.4991 52.3054C51.0223 52.3054 55.4987 47.2711 55.4987 41.0595C55.4987 39.2497 55.0846 37.5628 54.405 36.0516L61.928 34.0133C63.3498 33.6267 63.3498 31.6323 61.928 31.2458L47.0538 27.2043C46.0382 26.9319 44.9679 26.9319 43.9523 27.2043L29.0624 31.237C27.6485 31.6236 27.6485 33.6267 29.0624 34.0133Z" fill="white"/>
</svg>
