<svg width="122" height="30" viewBox="0 0 122 30" fill="none" xmlns="http://www.w3.org/2000/svg">
<path d="M101.666 10L71.1662 3.42501C68.3702 2.81006 64.7507 2.47009 60.9995 2.47009C57.2483 2.47009 53.6288 2.81006 50.8328 3.42501L20.3328 10C18.7182 10.3551 17.4297 10.7907 16.5532 11.2778C15.6767 11.7649 15.2323 12.2924 15.2495 12.825V23.75C15.2495 24.7446 16.8562 25.6984 19.7161 26.4017C22.5761 27.1049 26.455 27.5 30.4995 27.5H91.4995C95.544 27.5 99.4229 27.1049 102.283 26.4017C105.143 25.6984 106.749 24.7446 106.749 23.75V12.8125C106.759 12.282 106.312 11.7569 105.435 11.2721C104.559 10.7873 103.274 10.3537 101.666 10V10ZM71.1662 25H50.8328V18.75C50.8328 18.4185 51.3684 18.1005 52.3217 17.8661C53.275 17.6317 54.568 17.5 55.9162 17.5H66.0828C67.431 17.5 68.724 17.6317 69.6773 17.8661C70.6306 18.1005 71.1662 18.4185 71.1662 18.75V25ZM96.5828 23.75C96.5828 24.0815 96.0473 24.3995 95.094 24.6339C94.1406 24.8683 92.8477 25 91.4995 25H81.3328V18.75C81.3328 17.7554 79.7261 16.8016 76.8662 16.0984C74.0063 15.3951 70.1274 15 66.0828 15H55.9162C51.8716 15 47.9927 15.3951 45.1328 16.0984C42.2729 16.8016 40.6662 17.7554 40.6662 18.75V25H30.4995C29.1513 25 27.8584 24.8683 26.905 24.6339C25.9517 24.3995 25.4162 24.0815 25.4162 23.75V12.8125C25.4171 12.635 25.5717 12.4596 25.8697 12.298C26.1677 12.1363 26.6023 11.9921 27.1445 11.875L57.6445 5.31251C58.5721 5.11211 59.7647 5.00159 60.9995 5.00159C62.2343 5.00159 63.4268 5.11211 64.3545 5.31251L94.8545 11.875C95.3967 11.9921 95.8313 12.1363 96.1293 12.298C96.4273 12.4596 96.5819 12.635 96.5828 12.8125V23.75Z" fill="#C1BBEB"/>
</svg>
