<svg width="32" height="32" viewBox="0 0 32 32" fill="none" xmlns="http://www.w3.org/2000/svg">
<path d="M15.9997 19.9667C15.822 19.9667 15.6495 19.9333 15.4824 19.8667C15.3153 19.8 15.1766 19.7111 15.0664 19.6L8.93307 13.4667C8.68863 13.2222 8.56641 12.9111 8.56641 12.5333C8.56641 12.1556 8.68863 11.8444 8.93307 11.6C9.17752 11.3556 9.48863 11.2333 9.86641 11.2333C10.2442 11.2333 10.5553 11.3556 10.7997 11.6L15.9997 16.8L21.1997 11.6C21.4442 11.3556 21.7553 11.2333 22.1331 11.2333C22.5109 11.2333 22.822 11.3556 23.0664 11.6C23.3108 11.8444 23.4331 12.1556 23.4331 12.5333C23.4331 12.9111 23.3108 13.2222 23.0664 13.4667L16.9331 19.6C16.7997 19.7333 16.6553 19.828 16.4997 19.884C16.3442 19.94 16.1775 19.9676 15.9997 19.9667Z" fill="#303972"/>
</svg>
