<svg width="32" height="33" viewBox="0 0 32 33" fill="none" xmlns="http://www.w3.org/2000/svg">
<path d="M27.6 26.3L22 20.7C23.3 19 24.1 16.9 24.1 14.6C24.1 9.10001 19.6 4.60001 14.1 4.60001C8.6 4.60001 4 9.10001 4 14.6C4 20.1 8.5 24.6 14 24.6C16.3 24.6 18.5 23.8 20.2 22.4L25.8 28C26 28.2 26.4 28.4 26.7 28.4C27 28.4 27.3 28.3 27.6 28C28.1 27.6 28.1 26.8 27.6 26.3ZM6.5 14.6C6.5 10.5 9.9 7.10001 14 7.10001C18.1 7.10001 21.5 10.5 21.5 14.6C21.5 18.7 18.1 22.1 14 22.1C9.9 22.1 6.5 18.8 6.5 14.6Z" fill="#0161AF"/>
</svg>
