<svg width="11" height="12" viewBox="0 0 11 12" fill="none" xmlns="http://www.w3.org/2000/svg">
<path d="M0.782626 3.24416L0.676019 2.34378C0.630879 1.96253 0.903464 1.62579 1.28396 1.59274L9.18767 0.861748C9.56995 0.82649 9.91553 1.10622 9.9584 1.48563L10.8914 9.36604C10.9366 9.74728 10.664 10.084 10.2835 10.1171L9.38067 10.2003C8.99432 10.236 8.6455 9.94629 8.60802 9.56024L8.15943 4.78196L3.00541 11.1491C2.7669 11.4438 2.33175 11.4839 2.02937 11.2391L1.30183 10.6502C0.999453 10.4055 0.94807 9.97149 1.18658 9.67684L6.3406 3.30967L1.56962 3.86655C1.18244 3.9125 0.826452 3.63168 0.782626 3.24416Z" fill="white"/>
</svg>
