<svg width="16" height="20" viewBox="0 0 16 20" fill="none" xmlns="http://www.w3.org/2000/svg">
<path d="M9.33333 5.3125V0H1C0.445833 0 0 0.417969 0 0.9375V19.0625C0 19.582 0.445833 20 1 20H15C15.5542 20 16 19.582 16 19.0625V6.25H10.3333C9.78333 6.25 9.33333 5.82813 9.33333 5.3125ZM12 14.5313C12 14.7891 11.775 15 11.5 15H4.5C4.225 15 4 14.7891 4 14.5313V14.2188C4 13.9609 4.225 13.75 4.5 13.75H11.5C11.775 13.75 12 13.9609 12 14.2188V14.5313ZM12 12.0313C12 12.2891 11.775 12.5 11.5 12.5H4.5C4.225 12.5 4 12.2891 4 12.0313V11.7188C4 11.4609 4.225 11.25 4.5 11.25H11.5C11.775 11.25 12 11.4609 12 11.7188V12.0313ZM12 9.21875V9.53125C12 9.78906 11.775 10 11.5 10H4.5C4.225 10 4 9.78906 4 9.53125V9.21875C4 8.96094 4.225 8.75 4.5 8.75H11.5C11.775 8.75 12 8.96094 12 9.21875ZM16 4.76172V5H10.6667V0H10.9208C11.1875 0 11.4417 0.0976563 11.6292 0.273438L15.7083 4.10156C15.8958 4.27734 16 4.51563 16 4.76172Z" fill="#4D44B5"/>
</svg>
