<svg width="18" height="18" viewBox="0 0 18 18" fill="none" xmlns="http://www.w3.org/2000/svg">
<path d="M16.479 7.07143H10.7748V1.28571C10.7748 0.575759 10.2071 0 9.50714 0H8.23952C7.53956 0 6.9719 0.575759 6.9719 1.28571V7.07143H1.26762C0.567656 7.07143 0 7.64719 0 8.35714V9.64286C0 10.3528 0.567656 10.9286 1.26762 10.9286H6.9719V16.7143C6.9719 17.4242 7.53956 18 8.23952 18H9.50714C10.2071 18 10.7748 17.4242 10.7748 16.7143V10.9286H16.479C17.179 10.9286 17.7467 10.3528 17.7467 9.64286V8.35714C17.7467 7.64719 17.179 7.07143 16.479 7.07143Z" fill="#F5A918"/>
</svg>
