<svg width="17" height="20" viewBox="0 0 17 20" fill="none" xmlns="http://www.w3.org/2000/svg">
<path d="M1.1972 18.125C1.1972 18.6223 1.38639 19.0992 1.72317 19.4508C2.05995 19.8025 2.51672 20 2.99299 20H13.7678C14.244 20 14.7008 19.8025 15.0376 19.4508C15.3743 19.0992 15.5635 18.6223 15.5635 18.125V5H1.1972V18.125ZM11.3734 8.125C11.3734 7.95924 11.4364 7.80027 11.5487 7.68306C11.6609 7.56585 11.8132 7.5 11.972 7.5C12.1307 7.5 12.283 7.56585 12.3952 7.68306C12.5075 7.80027 12.5706 7.95924 12.5706 8.125V16.875C12.5706 17.0408 12.5075 17.1997 12.3952 17.3169C12.283 17.4342 12.1307 17.5 11.972 17.5C11.8132 17.5 11.6609 17.4342 11.5487 17.3169C11.4364 17.1997 11.3734 17.0408 11.3734 16.875V8.125ZM7.78177 8.125C7.78177 7.95924 7.84484 7.80027 7.9571 7.68306C8.06936 7.56585 8.22161 7.5 8.38037 7.5C8.53913 7.5 8.69138 7.56585 8.80364 7.68306C8.9159 7.80027 8.97897 7.95924 8.97897 8.125V16.875C8.97897 17.0408 8.9159 17.1997 8.80364 17.3169C8.69138 17.4342 8.53913 17.5 8.38037 17.5C8.22161 17.5 8.06936 17.4342 7.9571 17.3169C7.84484 17.1997 7.78177 17.0408 7.78177 16.875V8.125ZM4.19019 8.125C4.19019 7.95924 4.25325 7.80027 4.36551 7.68306C4.47777 7.56585 4.63003 7.5 4.78878 7.5C4.94754 7.5 5.0998 7.56585 5.21206 7.68306C5.32431 7.80027 5.38738 7.95924 5.38738 8.125V16.875C5.38738 17.0408 5.32431 17.1997 5.21206 17.3169C5.0998 17.4342 4.94754 17.5 4.78878 17.5C4.63003 17.5 4.47777 17.4342 4.36551 17.3169C4.25325 17.1997 4.19019 17.0408 4.19019 16.875V8.125ZM16.1621 1.25001H11.6727L11.321 0.519538C11.2465 0.363372 11.1317 0.232008 10.9896 0.140225C10.8475 0.0484421 10.6837 -0.00011828 10.5166 6.84872e-06H6.24038C6.07367 -0.000662313 5.91014 0.047717 5.76854 0.139602C5.62694 0.231487 5.51299 0.363161 5.43976 0.519538L5.08808 1.25001H0.598598C0.43984 1.25001 0.287584 1.31585 0.175325 1.43306C0.0630664 1.55027 0 1.70925 0 1.87501L0 3.12501C0 3.29077 0.0630664 3.44974 0.175325 3.56695C0.287584 3.68416 0.43984 3.75001 0.598598 3.75001H16.1621C16.3209 3.75001 16.4732 3.68416 16.5854 3.56695C16.6977 3.44974 16.7607 3.29077 16.7607 3.12501V1.87501C16.7607 1.70925 16.6977 1.55027 16.5854 1.43306C16.4732 1.31585 16.3209 1.25001 16.1621 1.25001Z" fill="#F5A918"/>
</svg>
