<svg width="10" height="11" viewBox="0 0 10 11" fill="none" xmlns="http://www.w3.org/2000/svg">
<path d="M9.64553 9.12435L9.68397 10.0302C9.70025 10.4138 9.40305 10.729 9.02115 10.7333L1.08483 10.8665C0.700971 10.8728 0.377461 10.5678 0.363315 10.1862L0.0269077 2.25793C0.0106327 1.87437 0.307826 1.55912 0.689726 1.55485L1.59628 1.53988C1.98422 1.53347 2.3102 1.84862 2.31848 2.2364L2.40562 7.03489L8.02491 1.07433C8.28495 0.79849 8.7219 0.791271 9.00497 1.05813L9.68604 1.70021C9.96911 1.96707 9.98764 2.40368 9.72759 2.67952L4.10831 8.64009L8.90769 8.44442C9.29724 8.42777 9.63104 8.73463 9.64553 9.12435Z" fill="white"/>
</svg>
