<svg width="18" height="18" viewBox="0 0 18 18" fill="none" xmlns="http://www.w3.org/2000/svg">
<path d="M16.5533 7.07143H10.8233V1.28571C10.8233 0.575759 10.2531 0 9.55 0H8.27667C7.57355 0 7.00333 0.575759 7.00333 1.28571V7.07143H1.27333C0.570215 7.07143 0 7.64719 0 8.35714V9.64286C0 10.3528 0.570215 10.9286 1.27333 10.9286H7.00333V16.7143C7.00333 17.4242 7.57355 18 8.27667 18H9.55C10.2531 18 10.8233 17.4242 10.8233 16.7143V10.9286H16.5533C17.2565 10.9286 17.8267 10.3528 17.8267 9.64286V8.35714C17.8267 7.64719 17.2565 7.07143 16.5533 7.07143Z" fill="#4D44B5"/>
</svg>
