<svg width="18" height="18" viewBox="0 0 18 18" fill="none" xmlns="http://www.w3.org/2000/svg">
<path d="M16.4295 7.07143H10.7424V1.28571C10.7424 0.575759 10.1764 0 9.47857 0H8.21476C7.5169 0 6.95095 0.575759 6.95095 1.28571V7.07143H1.26381C0.56595 7.07143 0 7.64719 0 8.35714V9.64286C0 10.3528 0.56595 10.9286 1.26381 10.9286H6.95095V16.7143C6.95095 17.4242 7.5169 18 8.21476 18H9.47857C10.1764 18 10.7424 17.4242 10.7424 16.7143V10.9286H16.4295C17.1274 10.9286 17.6933 10.3528 17.6933 9.64286V8.35714C17.6933 7.64719 17.1274 7.07143 16.4295 7.07143Z" fill="#4D44B5"/>
</svg>
