<svg width="17" height="20" viewBox="0 0 17 20" fill="none" xmlns="http://www.w3.org/2000/svg">
<path d="M9.47161 5.3125V0H1.01481C0.452438 0 0 0.417969 0 0.9375V19.0625C0 19.582 0.452438 20 1.01481 20H15.2222C15.7846 20 16.237 19.582 16.237 19.0625V6.25H10.4864C9.92827 6.25 9.47161 5.82812 9.47161 5.3125ZM12.1778 14.5312C12.1778 14.7891 11.9494 15 11.6704 15H4.56667C4.28759 15 4.05926 14.7891 4.05926 14.5312V14.2188C4.05926 13.9609 4.28759 13.75 4.56667 13.75H11.6704C11.9494 13.75 12.1778 13.9609 12.1778 14.2188V14.5312ZM12.1778 12.0312C12.1778 12.2891 11.9494 12.5 11.6704 12.5H4.56667C4.28759 12.5 4.05926 12.2891 4.05926 12.0312V11.7188C4.05926 11.4609 4.28759 11.25 4.56667 11.25H11.6704C11.9494 11.25 12.1778 11.4609 12.1778 11.7188V12.0312ZM12.1778 9.21875V9.53125C12.1778 9.78906 11.9494 10 11.6704 10H4.56667C4.28759 10 4.05926 9.78906 4.05926 9.53125V9.21875C4.05926 8.96094 4.28759 8.75 4.56667 8.75H11.6704C11.9494 8.75 12.1778 8.96094 12.1778 9.21875ZM16.237 4.76172V5H10.8247V0H11.0826C11.3532 0 11.6112 0.0976562 11.8015 0.273438L15.941 4.10156C16.1313 4.27734 16.237 4.51562 16.237 4.76172Z" fill="#4D44B5"/>
</svg>
