<svg width="17" height="18" viewBox="0 0 17 18" fill="none" xmlns="http://www.w3.org/2000/svg">
<path d="M11.8119 2.92206L14.4583 6.09377C14.5697 6.22739 14.5697 6.4454 14.4583 6.57902L8.05062 14.2586L5.32796 14.6208C4.96416 14.6701 4.6561 14.3008 4.69717 13.8648L4.99936 10.6017L11.407 2.92206C11.5185 2.78844 11.7004 2.78844 11.8119 2.92206ZM16.5648 2.11682L15.1331 0.40086C14.6871 -0.13362 13.9624 -0.13362 13.5135 0.40086L12.4749 1.64563C12.3635 1.77925 12.3635 1.99727 12.4749 2.13089L15.1213 5.3026C15.2328 5.43622 15.4147 5.43622 15.5262 5.3026L16.5648 4.05782C17.0107 3.51983 17.0107 2.6513 16.5648 2.11682ZM11.2662 12.17V15.7496H1.8777V4.49736H8.6198C8.71368 4.49736 8.8017 4.45165 8.86918 4.37429L10.0427 2.96777C10.2657 2.70053 10.1073 2.24692 9.79336 2.24692H1.40827C0.630788 2.24692 0 3.00293 0 3.93475V16.3122C0 17.244 0.630788 18 1.40827 18H11.7356C12.5131 18 13.1439 17.244 13.1439 16.3122V10.7634C13.1439 10.3872 12.7654 10.2008 12.5424 10.4645L11.3689 11.8711C11.3043 11.9519 11.2662 12.0574 11.2662 12.17Z" fill="#F5A918"/>
</svg>
