<svg width="21" height="21" viewBox="0 0 21 21" fill="none" xmlns="http://www.w3.org/2000/svg">
<path d="M1.44974 19.0312C1.44974 19.5534 1.67884 20.0542 2.08666 20.4234C2.49448 20.7926 3.0476 21 3.62434 21H16.672C17.2487 21 17.8018 20.7926 18.2096 20.4234C18.6175 20.0542 18.8466 19.5534 18.8466 19.0312V5.25H1.44974V19.0312ZM13.7725 8.53125C13.7725 8.35721 13.8489 8.19029 13.9848 8.06721C14.1207 7.94414 14.3051 7.875 14.4974 7.875C14.6896 7.875 14.874 7.94414 15.0099 8.06721C15.1459 8.19029 15.2222 8.35721 15.2222 8.53125V17.7188C15.2222 17.8928 15.1459 18.0597 15.0099 18.1828C14.874 18.3059 14.6896 18.375 14.4974 18.375C14.3051 18.375 14.1207 18.3059 13.9848 18.1828C13.8489 18.0597 13.7725 17.8928 13.7725 17.7188V8.53125ZM9.42328 8.53125C9.42328 8.35721 9.49965 8.19029 9.63559 8.06721C9.77153 7.94414 9.9559 7.875 10.1481 7.875C10.3404 7.875 10.5248 7.94414 10.6607 8.06721C10.7966 8.19029 10.873 8.35721 10.873 8.53125V17.7188C10.873 17.8928 10.7966 18.0597 10.6607 18.1828C10.5248 18.3059 10.3404 18.375 10.1481 18.375C9.9559 18.375 9.77153 18.3059 9.63559 18.1828C9.49965 18.0597 9.42328 17.8928 9.42328 17.7188V8.53125ZM5.07407 8.53125C5.07407 8.35721 5.15044 8.19029 5.28638 8.06721C5.42232 7.94414 5.6067 7.875 5.79894 7.875C5.99119 7.875 6.17556 7.94414 6.3115 8.06721C6.44744 8.19029 6.52381 8.35721 6.52381 8.53125V17.7188C6.52381 17.8928 6.44744 18.0597 6.3115 18.1828C6.17556 18.3059 5.99119 18.375 5.79894 18.375C5.6067 18.375 5.42232 18.3059 5.28638 18.1828C5.15044 18.0597 5.07407 17.8928 5.07407 17.7188V8.53125ZM19.5714 1.31251H14.1349L13.7091 0.545515C13.6189 0.38154 13.4799 0.243608 13.3078 0.147236C13.1357 0.0508642 12.9374 -0.000124194 12.735 7.19115e-06H7.55675C7.35486 -0.000695428 7.15684 0.0501028 6.98537 0.146582C6.8139 0.243061 6.67592 0.381319 6.58724 0.545515L6.16138 1.31251H0.724868C0.532621 1.31251 0.348248 1.38165 0.212309 1.50472C0.0763698 1.62779 0 1.79471 0 1.96876L0 3.28126C0 3.4553 0.0763698 3.62222 0.212309 3.74529C0.348248 3.86837 0.532621 3.93751 0.724868 3.93751H19.5714C19.7637 3.93751 19.948 3.86837 20.084 3.74529C20.2199 3.62222 20.2963 3.4553 20.2963 3.28126V1.96876C20.2963 1.79471 20.2199 1.62779 20.084 1.50472C19.948 1.38165 19.7637 1.31251 19.5714 1.31251Z" fill="#4D44B5"/>
</svg>
