<svg width="17" height="18" viewBox="0 0 17 18" fill="none" xmlns="http://www.w3.org/2000/svg">
<path d="M11.8823 2.92206L14.5444 6.09377C14.6566 6.22739 14.6566 6.4454 14.5444 6.57902L8.09861 14.2586L5.35972 14.6208C4.99375 14.6701 4.68385 14.3008 4.72517 13.8648L5.02917 10.6017L11.475 2.92206C11.5872 2.78844 11.7701 2.78844 11.8823 2.92206ZM16.6635 2.11682L15.2233 0.40086C14.7747 -0.13362 14.0457 -0.13362 13.5941 0.40086L12.5493 1.64563C12.4372 1.77925 12.4372 1.99727 12.5493 2.13089L15.2115 5.3026C15.3236 5.43622 15.5066 5.43622 15.6187 5.3026L16.6635 4.05782C17.1122 3.51983 17.1122 2.6513 16.6635 2.11682ZM11.3333 12.17V15.7496H1.88889V4.49736H8.67118C8.76562 4.49736 8.85417 4.45165 8.92205 4.37429L10.1026 2.96777C10.3269 2.70053 10.1675 2.24692 9.85174 2.24692H1.41667C0.634549 2.24692 0 3.00293 0 3.93475V16.3122C0 17.244 0.634549 18 1.41667 18H11.8056C12.5877 18 13.2222 17.244 13.2222 16.3122V10.7634C13.2222 10.3872 12.8415 10.2008 12.6172 10.4645L11.4366 11.8711C11.3717 11.9519 11.3333 12.0574 11.3333 12.17Z" fill="#4D44B5"/>
</svg>
