<svg width="17" height="20" viewBox="0 0 17 20" fill="none" xmlns="http://www.w3.org/2000/svg">
<path d="M1.21429 18.125C1.21429 18.6223 1.40619 19.0992 1.74777 19.4508C2.08935 19.8025 2.55264 20 3.03571 20H13.9643C14.4474 20 14.9106 19.8025 15.2522 19.4508C15.5938 19.0992 15.7857 18.6223 15.7857 18.125V5H1.21429V18.125ZM11.5357 8.125C11.5357 7.95924 11.5997 7.80027 11.7135 7.68306C11.8274 7.56585 11.9818 7.5 12.1429 7.5C12.3039 7.5 12.4583 7.56585 12.5722 7.68306C12.686 7.80027 12.75 7.95924 12.75 8.125V16.875C12.75 17.0408 12.686 17.1997 12.5722 17.3169C12.4583 17.4342 12.3039 17.5 12.1429 17.5C11.9818 17.5 11.8274 17.4342 11.7135 17.3169C11.5997 17.1997 11.5357 17.0408 11.5357 16.875V8.125ZM7.89286 8.125C7.89286 7.95924 7.95682 7.80027 8.07069 7.68306C8.18455 7.56585 8.33898 7.5 8.5 7.5C8.66102 7.5 8.81545 7.56585 8.92931 7.68306C9.04318 7.80027 9.10714 7.95924 9.10714 8.125V16.875C9.10714 17.0408 9.04318 17.1997 8.92931 17.3169C8.81545 17.4342 8.66102 17.5 8.5 17.5C8.33898 17.5 8.18455 17.4342 8.07069 17.3169C7.95682 17.1997 7.89286 17.0408 7.89286 16.875V8.125ZM4.25 8.125C4.25 7.95924 4.31397 7.80027 4.42783 7.68306C4.54169 7.56585 4.69612 7.5 4.85714 7.5C5.01817 7.5 5.1726 7.56585 5.28646 7.68306C5.40032 7.80027 5.46429 7.95924 5.46429 8.125V16.875C5.46429 17.0408 5.40032 17.1997 5.28646 17.3169C5.1726 17.4342 5.01817 17.5 4.85714 17.5C4.69612 17.5 4.54169 17.4342 4.42783 17.3169C4.31397 17.1997 4.25 17.0408 4.25 16.875V8.125ZM16.3929 1.25001H11.8393L11.4826 0.519538C11.407 0.363372 11.2906 0.232008 11.1465 0.140225C11.0024 0.0484421 10.8362 -0.00011828 10.6667 6.84872e-06H6.32946C6.16037 -0.000662313 5.99451 0.047717 5.85089 0.139602C5.70726 0.231487 5.59169 0.363161 5.51741 0.519538L5.16071 1.25001H0.607143C0.446119 1.25001 0.291689 1.31585 0.177828 1.43306C0.0639667 1.55027 0 1.70925 0 1.87501L0 3.12501C0 3.29077 0.0639667 3.44974 0.177828 3.56695C0.291689 3.68416 0.446119 3.75001 0.607143 3.75001H16.3929C16.5539 3.75001 16.7083 3.68416 16.8222 3.56695C16.936 3.44974 17 3.29077 17 3.12501V1.87501C17 1.70925 16.936 1.55027 16.8222 1.43306C16.7083 1.31585 16.5539 1.25001 16.3929 1.25001Z" fill="#4D44B5"/>
</svg>
