<svg width="20" height="18" viewBox="0 0 20 18" fill="none" xmlns="http://www.w3.org/2000/svg">
<path d="M13.7824 2.92206L16.8703 6.09377C17.0004 6.22739 17.0004 6.4454 16.8703 6.57902L9.39368 14.2586L6.21681 14.6208C5.79232 14.6701 5.43286 14.3008 5.48079 13.8648L5.8334 10.6017L13.31 2.92206C13.4401 2.78844 13.6523 2.78844 13.7824 2.92206ZM19.3283 2.11682L17.6577 0.40086C17.1373 -0.13362 16.2917 -0.13362 15.768 0.40086L14.5561 1.64563C14.426 1.77925 14.426 1.99727 14.5561 2.13089L17.644 5.3026C17.7741 5.43622 17.9863 5.43622 18.1164 5.3026L19.3283 4.05782C19.8486 3.51983 19.8486 2.6513 19.3283 2.11682ZM13.1457 12.17V15.7496H2.19095V4.49736H10.0578C10.1674 4.49736 10.2701 4.45165 10.3488 4.37429L11.7181 2.96777C11.9783 2.70053 11.7935 2.24692 11.4272 2.24692H1.64321C0.736021 2.24692 0 3.00293 0 3.93475V16.3122C0 17.244 0.736021 18 1.64321 18H13.6934C14.6006 18 15.3366 17.244 15.3366 16.3122V10.7634C15.3366 10.3872 14.895 10.2008 14.6348 10.4645L13.2655 11.8711C13.1902 11.9519 13.1457 12.0574 13.1457 12.17Z" fill="#F5A918"/>
</svg>
