<svg width="17" height="20" viewBox="0 0 17 20" fill="none" xmlns="http://www.w3.org/2000/svg">
<path d="M1.1936 18.125C1.1936 18.6223 1.38223 19.0992 1.71799 19.4508C2.05376 19.8025 2.50915 20 2.98399 20H13.7264C14.2012 20 14.6566 19.8025 14.9924 19.4508C15.3281 19.0992 15.5168 18.6223 15.5168 18.125V5H1.1936V18.125ZM11.3392 8.125C11.3392 7.95924 11.4021 7.80027 11.514 7.68306C11.6259 7.56585 11.7777 7.5 11.936 7.5C12.0943 7.5 12.2461 7.56585 12.358 7.68306C12.4699 7.80027 12.5328 7.95924 12.5328 8.125V16.875C12.5328 17.0408 12.4699 17.1997 12.358 17.3169C12.2461 17.4342 12.0943 17.5 11.936 17.5C11.7777 17.5 11.6259 17.4342 11.514 17.3169C11.4021 17.1997 11.3392 17.0408 11.3392 16.875V8.125ZM7.75839 8.125C7.75839 7.95924 7.82126 7.80027 7.93318 7.68306C8.04511 7.56585 8.1969 7.5 8.35519 7.5C8.51347 7.5 8.66526 7.56585 8.77719 7.68306C8.88911 7.80027 8.95198 7.95924 8.95198 8.125V16.875C8.95198 17.0408 8.88911 17.1997 8.77719 17.3169C8.66526 17.4342 8.51347 17.5 8.35519 17.5C8.1969 17.5 8.04511 17.4342 7.93318 17.3169C7.82126 17.1997 7.75839 17.0408 7.75839 16.875V8.125ZM4.17759 8.125C4.17759 7.95924 4.24047 7.80027 4.35239 7.68306C4.46431 7.56585 4.61611 7.5 4.77439 7.5C4.93267 7.5 5.08447 7.56585 5.19639 7.68306C5.30831 7.80027 5.37119 7.95924 5.37119 8.125V16.875C5.37119 17.0408 5.30831 17.1997 5.19639 17.3169C5.08447 17.4342 4.93267 17.5 4.77439 17.5C4.61611 17.5 4.46431 17.4342 4.35239 17.3169C4.24047 17.1997 4.17759 17.0408 4.17759 16.875V8.125ZM16.1136 1.25001H11.6376L11.287 0.519538C11.2127 0.363372 11.0983 0.232008 10.9566 0.140225C10.8149 0.0484421 10.6516 -0.00011828 10.485 6.84872e-06H6.22163C6.05541 -0.000662313 5.89238 0.047717 5.7512 0.139602C5.61003 0.231487 5.49643 0.363161 5.42341 0.519538L5.07279 1.25001H0.596799C0.438518 1.25001 0.28672 1.31585 0.174798 1.43306C0.0628769 1.55027 0 1.70925 0 1.87501L0 3.12501C0 3.29077 0.0628769 3.44974 0.174798 3.56695C0.28672 3.68416 0.438518 3.75001 0.596799 3.75001H16.1136C16.2719 3.75001 16.4237 3.68416 16.5356 3.56695C16.6475 3.44974 16.7104 3.29077 16.7104 3.12501V1.87501C16.7104 1.70925 16.6475 1.55027 16.5356 1.43306C16.4237 1.31585 16.2719 1.25001 16.1136 1.25001Z" fill="#F5A918"/>
</svg>
