<svg width="20" height="21" viewBox="0 0 20 21" fill="none" xmlns="http://www.w3.org/2000/svg">
<path d="M1.42857 19.0313C1.42857 19.5534 1.65434 20.0542 2.0562 20.4234C2.45806 20.7926 3.00311 21 3.57143 21H16.4286C16.9969 21 17.5419 20.7926 17.9438 20.4234C18.3457 20.0542 18.5714 19.5534 18.5714 19.0313V5.25H1.42857V19.0313ZM13.5714 8.53125C13.5714 8.35721 13.6467 8.19029 13.7806 8.06722C13.9146 7.94414 14.0963 7.875 14.2857 7.875C14.4752 7.875 14.6568 7.94414 14.7908 8.06722C14.9247 8.19029 15 8.35721 15 8.53125V17.7188C15 17.8928 14.9247 18.0597 14.7908 18.1828C14.6568 18.3059 14.4752 18.375 14.2857 18.375C14.0963 18.375 13.9146 18.3059 13.7806 18.1828C13.6467 18.0597 13.5714 17.8928 13.5714 17.7188V8.53125ZM9.28571 8.53125C9.28571 8.35721 9.36097 8.19029 9.49492 8.06722C9.62888 7.94414 9.81056 7.875 10 7.875C10.1894 7.875 10.3711 7.94414 10.5051 8.06722C10.639 8.19029 10.7143 8.35721 10.7143 8.53125V17.7188C10.7143 17.8928 10.639 18.0597 10.5051 18.1828C10.3711 18.3059 10.1894 18.375 10 18.375C9.81056 18.375 9.62888 18.3059 9.49492 18.1828C9.36097 18.0597 9.28571 17.8928 9.28571 17.7188V8.53125ZM5 8.53125C5 8.35721 5.07526 8.19029 5.20921 8.06722C5.34316 7.94414 5.52485 7.875 5.71429 7.875C5.90373 7.875 6.08541 7.94414 6.21936 8.06722C6.35332 8.19029 6.42857 8.35721 6.42857 8.53125V17.7188C6.42857 17.8928 6.35332 18.0597 6.21936 18.1828C6.08541 18.3059 5.90373 18.375 5.71429 18.375C5.52485 18.375 5.34316 18.3059 5.20921 18.1828C5.07526 18.0597 5 17.8928 5 17.7188V8.53125ZM19.2857 1.31251H13.9286L13.5089 0.545515C13.42 0.38154 13.2831 0.243608 13.1135 0.147236C12.944 0.0508642 12.7485 -0.000124194 12.5491 7.19115e-06H7.44643C7.24749 -0.000695428 7.05236 0.0501028 6.8834 0.146582C6.71443 0.243061 6.57846 0.381319 6.49107 0.545515L6.07143 1.31251H0.714286C0.524845 1.31251 0.343164 1.38165 0.209209 1.50472C0.0752549 1.62779 0 1.79471 0 1.96876L0 3.28126C0 3.4553 0.0752549 3.62222 0.209209 3.74529C0.343164 3.86837 0.524845 3.93751 0.714286 3.93751H19.2857C19.4752 3.93751 19.6568 3.86837 19.7908 3.74529C19.9247 3.62222 20 3.4553 20 3.28126V1.96876C20 1.79471 19.9247 1.62779 19.7908 1.50472C19.6568 1.38165 19.4752 1.31251 19.2857 1.31251Z" fill="#4D44B5"/>
</svg>
