<svg width="17" height="20" viewBox="0 0 17 20" fill="none" xmlns="http://www.w3.org/2000/svg">
<path d="M1.20259 18.125C1.20259 18.6223 1.39264 19.0992 1.73094 19.4508C2.06923 19.8025 2.52806 20 3.00648 20H13.8298C14.3082 20 14.7671 19.8025 15.1054 19.4508C15.4437 19.0992 15.6337 18.6223 15.6337 18.125V5H1.20259V18.125ZM11.4246 8.125C11.4246 7.95924 11.488 7.80027 11.6007 7.68306C11.7135 7.56585 11.8665 7.5 12.0259 7.5C12.1854 7.5 12.3383 7.56585 12.4511 7.68306C12.5639 7.80027 12.6272 7.95924 12.6272 8.125V16.875C12.6272 17.0408 12.5639 17.1997 12.4511 17.3169C12.3383 17.4342 12.1854 17.5 12.0259 17.5C11.8665 17.5 11.7135 17.4342 11.6007 17.3169C11.488 17.1997 11.4246 17.0408 11.4246 16.875V8.125ZM7.81685 8.125C7.81685 7.95924 7.8802 7.80027 7.99297 7.68306C8.10573 7.56585 8.25867 7.5 8.41815 7.5C8.57762 7.5 8.73056 7.56585 8.84333 7.68306C8.95609 7.80027 9.01944 7.95924 9.01944 8.125V16.875C9.01944 17.0408 8.95609 17.1997 8.84333 17.3169C8.73056 17.4342 8.57762 17.5 8.41815 17.5C8.25867 17.5 8.10573 17.4342 7.99297 17.3169C7.8802 17.1997 7.81685 17.0408 7.81685 16.875V8.125ZM4.20907 8.125C4.20907 7.95924 4.27242 7.80027 4.38519 7.68306C4.49795 7.56585 4.6509 7.5 4.81037 7.5C4.96984 7.5 5.12279 7.56585 5.23555 7.68306C5.34832 7.80027 5.41167 7.95924 5.41167 8.125V16.875C5.41167 17.0408 5.34832 17.1997 5.23555 17.3169C5.12279 17.4342 4.96984 17.5 4.81037 17.5C4.6509 17.5 4.49795 17.4342 4.38519 17.3169C4.27242 17.1997 4.20907 17.0408 4.20907 16.875V8.125ZM16.235 1.25001H11.7253L11.372 0.519538C11.2972 0.363372 11.1819 0.232008 11.0392 0.140225C10.8964 0.0484421 10.7319 -0.00011828 10.564 6.84872e-06H6.26851C6.10105 -0.000662313 5.93678 0.047717 5.79454 0.139602C5.65231 0.231487 5.53785 0.363161 5.46428 0.519538L5.11102 1.25001H0.601296C0.441823 1.25001 0.288881 1.31585 0.176116 1.43306C0.0633507 1.55027 0 1.70925 0 1.87501L0 3.12501C0 3.29077 0.0633507 3.44974 0.176116 3.56695C0.288881 3.68416 0.441823 3.75001 0.601296 3.75001H16.235C16.3945 3.75001 16.5474 3.68416 16.6602 3.56695C16.7729 3.44974 16.8363 3.29077 16.8363 3.12501V1.87501C16.8363 1.70925 16.7729 1.55027 16.6602 1.43306C16.5474 1.31585 16.3945 1.25001 16.235 1.25001Z" fill="#4D44B5"/>
</svg>
