<svg width="22" height="16" viewBox="0 0 22 16" fill="none" xmlns="http://www.w3.org/2000/svg">
<path d="M21.7375 7.39167C19.6785 2.98292 15.6022 0 10.9348 0C6.26739 0 2.18998 2.985 0.132108 7.39208C0.0452532 7.58063 0 7.78894 0 8.00021C0 8.21148 0.0452532 8.41979 0.132108 8.60833C2.19112 13.0171 6.26739 16 10.9348 16C15.6022 16 19.6796 13.015 21.7375 8.60792C21.8244 8.41937 21.8696 8.21106 21.8696 7.99979C21.8696 7.78852 21.8244 7.58021 21.7375 7.39167ZM10.9348 14C9.85346 14 8.79639 13.6481 7.89728 12.9888C6.99817 12.3295 6.2974 11.3925 5.88358 10.2961C5.46976 9.19974 5.36149 7.99334 5.57245 6.82946C5.78341 5.66557 6.30413 4.59647 7.06877 3.75736C7.8334 2.91824 8.8076 2.3468 9.86817 2.11529C10.9287 1.88378 12.0281 2.0026 13.0271 2.45672C14.0261 2.91085 14.88 3.67988 15.4808 4.66658C16.0816 5.65327 16.4022 6.81331 16.4022 8C16.4026 8.78804 16.2614 9.56843 15.9868 10.2966C15.7121 11.0247 15.3094 11.6863 14.8016 12.2435C14.2939 12.8007 13.691 13.2427 13.0275 13.5441C12.364 13.8455 11.6529 14.0004 10.9348 14ZM10.9348 4C10.6095 4.00499 10.2862 4.05811 9.97384 4.15792C10.2313 4.54195 10.3549 5.01454 10.3221 5.48998C10.2894 5.96542 10.1024 6.41223 9.7952 6.74938C9.48798 7.08652 9.08083 7.29168 8.64759 7.32765C8.21435 7.36362 7.78371 7.22801 7.43377 6.94542C7.2345 7.75108 7.27047 8.60503 7.53662 9.38708C7.80277 10.1691 8.28569 10.8399 8.91742 11.305C9.54914 11.7701 10.2979 12.006 11.0582 11.9797C11.8185 11.9533 12.5522 11.666 13.1559 11.158C13.7596 10.6501 14.203 9.94726 14.4236 9.14833C14.6443 8.3494 14.6311 7.49466 14.3859 6.70441C14.1406 5.91415 13.6758 5.22818 13.0567 4.74305C12.4376 4.25791 11.6955 3.99804 10.9348 4Z" fill="#F5A918"/>
</svg>
